<svg width="14" height="17" viewBox="0 0 14 17" fill="none" xmlns="http://www.w3.org/2000/svg">
<path d="M14 12.9486C14 10.7322 12.6994 8.81776 10.8182 7.92605V4.63329C10.8182 4.33341 10.7128 4.04346 10.5179 3.81507L7.48722 0.226402C7.35994 0.0754673 7.17898 0 7 0C6.82102 0 6.64006 0.0754673 6.51278 0.226402L3.4821 3.81507C3.28854 4.04393 3.18218 4.33373 3.18182 4.63329V7.92605C1.30057 8.81776 0 10.7322 0 12.9486H3.11222C3.06648 13.0916 3.04261 13.2465 3.04261 13.4213C3.04261 13.8602 3.19375 14.2891 3.46818 14.6287C3.69219 14.9065 3.98886 15.1168 4.32528 15.2364C4.78466 16.3089 5.82869 17 7 17C7.57869 17 8.13949 16.8292 8.61875 16.5075C9.08807 16.1937 9.45199 15.7548 9.67273 15.2364C10.009 15.1176 10.3057 14.9079 10.5298 14.6307C10.8046 14.288 10.9547 13.8623 10.9554 13.4232C10.9554 13.2564 10.9335 13.0975 10.8937 12.9506H14V12.9486ZM11.9776 10.6727C12.1645 10.9626 12.3156 11.2744 12.425 11.5981H10.7386V9.42745C11.2348 9.7508 11.657 10.1751 11.9776 10.6727ZM4.53409 7.92605V4.66308L7 1.74369L9.46591 4.66308V11.5981H4.53409V7.92605ZM1.575 11.5981C1.68437 11.2744 1.83551 10.9626 2.02244 10.6727C2.34659 10.1722 2.76818 9.74918 3.26136 9.42745V11.5981H1.575ZM9.30881 13.9058C9.2054 13.9654 9.08608 13.9893 8.96875 13.9734L8.58097 13.9257L8.52528 14.311C8.4179 15.0637 7.76165 15.6317 7 15.6317C6.23835 15.6317 5.5821 15.0637 5.47472 14.311L5.41903 13.9237L5.03125 13.9734C4.91336 13.9874 4.79408 13.963 4.69119 13.9039C4.51818 13.8046 4.4108 13.6199 4.4108 13.4193C4.4108 13.2088 4.52812 13.034 4.70114 12.9466H9.30085C9.47585 13.036 9.59119 13.2107 9.59119 13.4193C9.5892 13.6218 9.48182 13.8085 9.30881 13.9058ZM6.04545 6.2757C6.04545 6.52852 6.14602 6.77099 6.32503 6.94977C6.50405 7.12854 6.74684 7.22897 7 7.22897C7.25316 7.22897 7.49595 7.12854 7.67496 6.94977C7.85398 6.77099 7.95455 6.52852 7.95455 6.2757C7.95455 6.02288 7.85398 5.78041 7.67496 5.60164C7.49595 5.42286 7.25316 5.32243 7 5.32243C6.74684 5.32243 6.50405 5.42286 6.32503 5.60164C6.14602 5.78041 6.04545 6.02288 6.04545 6.2757Z" fill="#F5F6F8"/>
</svg>
